<svg width="50" height="50" viewBox="0 0 50 50" fill="none" xmlns="http://www.w3.org/2000/svg">
<g clip-path="url(#clip0_1964_17)">
<rect width="50" height="50" rx="5.02083" fill="#FFDCC3"/>
<path d="M21.8048 32.7788C21.344 32.9631 20.9753 33.0922 20.6988 33.1659C20.4407 33.2581 20.026 33.3318 19.4545 33.3871C18.8831 33.4608 18.3485 33.4148 17.8508 33.2489C16.7264 33.0092 15.8969 32.4746 15.3623 31.6451C14.8462 30.8156 14.5881 29.9308 14.5881 28.9907V22.4376H12.2102V19.4791H13.7862C14.1734 19.4791 14.4314 19.4238 14.5605 19.3132C14.6895 19.1841 14.754 18.9537 14.754 18.6219V15.3869H17.9891V19.4791H21.2518V22.4376H17.9614V26.6958C17.9614 27.6912 17.9891 28.3824 18.0444 28.7695C18.0997 29.1382 18.2195 29.4331 18.4038 29.6543C18.6988 29.9861 19.1043 30.1613 19.6204 30.1797C20.155 30.1797 20.5513 30.0783 20.8094 29.8755L21.8048 32.7788ZM26.6222 20.8892C27.636 19.5436 29.1936 18.9353 31.2951 19.0643C32.7144 19.1565 33.9955 19.7279 35.1384 20.7786C36.2813 21.8293 36.9541 23.2856 37.1569 25.1474C37.3228 26.622 37.2122 27.9308 36.8251 29.0737C36.438 30.2166 35.885 31.1014 35.1661 31.7281C34.4656 32.3548 33.7283 32.8157 32.9541 33.1106C32.1799 33.4055 31.4425 33.5346 30.742 33.4977C29.8572 33.4608 29.037 33.2581 28.2812 32.8894C27.5254 32.5207 26.9448 32.0599 26.5392 31.5069L26.401 33.1106L23.1936 33.1383L23.2489 12.9536L26.6222 12.9813V20.8892ZM26.5669 26.281C26.5669 27.2764 26.8618 28.2073 27.4517 29.0737C28.0416 29.9401 28.9079 30.3917 30.0508 30.4285C31.1937 30.4654 32.1061 30.0783 32.7882 29.2672C33.4886 28.4377 33.8389 27.4608 33.8389 26.3363C33.8389 25.1197 33.4978 24.1059 32.8158 23.2948C32.1338 22.4653 31.249 22.0782 30.1614 22.1335C29.1107 22.1888 28.2443 22.5943 27.5623 23.3501C26.8987 24.0874 26.5669 25.0644 26.5669 26.281Z" fill="#F06C22"/>
</g>
<defs>
<clipPath id="clip0_1964_17">
<rect width="50" height="50" rx="5.02083" fill="white"/>
</clipPath>
</defs>
</svg>
